<?xml version="1.0" encoding="utf-8"?>
<!-- Generator: Adobe Illustrator 19.0.1, SVG Export Plug-In . SVG Version: 6.00 Build 0)  -->
<svg version="1.1" id="Layer_1" xmlns="http://www.w3.org/2000/svg" xmlns:xlink="http://www.w3.org/1999/xlink" x="0px" y="0px"
	 viewBox="0 0 300 100" style="enable-background:new 0 0 300 100;" xml:space="preserve">
<style type="text/css">
	.st0{fill:#EA7200;}
	.st1{fill:#5C6670;}
	.st2{fill:none;}
</style>
<g>
	<g>
		<path class="st0" d="M226.6,11.9h-0.3l-25.6,51.8h6.2l6.3-13h26.1c0.9,1.9,5.6,11.8,6.2,13h6.2L226.6,11.9z M215.7,45.5l10.6-21.9
			l10.4,21.9H215.7z"/>
		<polygon class="st0" points="149.4,12.6 149.4,17.9 166.8,17.9 166.8,63.8 172.3,63.8 172.3,17.9 189.6,17.9 189.6,63.8 
			195.2,63.8 195.2,17.9 212.5,17.9 212.5,12.6 		"/>
		<path class="st0" d="M136,11.9h-0.3l-25.6,51.8h6.2l6.3-13h26.1l6.2,13h6.2L136,11.9z M125.2,45.5l10.6-21.9l10.4,21.9H125.2z"/>
		<path class="st0" d="M54.7,19.6c-4.9-5.2-11.6-8.2-19.2-8.2c-14.9,0-26.2,12-26.2,26.8C9.3,53,20.6,65,35.5,65
			c14.9,0,25.9-12,25.9-26.8c0-1,0-2-0.1-2.6H33.5v5.3h21.6c-0.7,9.6-8.2,18.6-19.6,18.6c-11.5,0-20.2-9.5-20.2-21.3
			c0-11.8,8.7-21.4,20.2-21.4c5.9,0,10.8,2.6,14.6,6.7C51.3,22.5,53.8,20.4,54.7,19.6"/>
		<polygon class="st0" points="251.8,63.8 257.2,63.8 257.2,26.1 291.5,64.7 291.5,12.6 286.1,12.6 286.1,50.4 251.8,11.9 		"/>
		<path class="st0" d="M96.7,43c6.2-1.1,12.3-6.7,12.3-14.9c0-7.8-5.9-15.5-15.4-15.5H66.9v51.1h5.4V43.5h18.3
			c1.2,1.8,11.9,18.6,12.9,20.3h6.8C110.1,63.8,97.7,44.2,96.7,43z M72.2,38.2V17.9H93c6.2,0,10,5.1,10,10.2c0,5.4-3.6,10-9.9,10
			H72.2z"/>
	</g>
	<g>
		<path class="st1" d="M196.6,88.1v0.5h-8v-0.5h0.7c0.8,0,1.3-0.2,1.7-0.7c0.2-0.3,0.3-1,0.3-2.1V73.2c0-1-0.1-1.6-0.2-1.9
			c-0.1-0.2-0.3-0.4-0.6-0.6c-0.4-0.2-0.8-0.3-1.3-0.3h-0.7v-0.5h8v0.5H196c-0.8,0-1.3,0.2-1.7,0.7c-0.2,0.3-0.3,1-0.3,2.1v12.1
			c0,1,0.1,1.6,0.2,1.9c0.1,0.2,0.3,0.4,0.6,0.6c0.4,0.2,0.8,0.3,1.3,0.3H196.6z"/>
		<path class="st1" d="M203.4,78.2c1.5-1.8,2.9-2.7,4.2-2.7c0.7,0,1.3,0.2,1.8,0.5c0.5,0.3,0.9,0.9,1.2,1.7c0.2,0.6,0.3,1.4,0.3,2.5
			v5.4c0,0.8,0.1,1.3,0.2,1.6c0.1,0.2,0.3,0.4,0.5,0.5c0.2,0.1,0.6,0.2,1.2,0.2v0.5h-6.2v-0.5h0.3c0.6,0,1-0.1,1.2-0.3
			c0.2-0.2,0.4-0.4,0.5-0.8c0-0.1,0.1-0.6,0.1-1.3v-5.2c0-1.2-0.2-2-0.4-2.5c-0.3-0.5-0.8-0.8-1.5-0.8c-1.1,0-2.2,0.6-3.3,1.8v6.7
			c0,0.9,0.1,1.4,0.2,1.6c0.1,0.3,0.3,0.5,0.5,0.6c0.2,0.1,0.7,0.2,1.4,0.2v0.5h-6.2v-0.5h0.3c0.6,0,1.1-0.2,1.3-0.5
			c0.2-0.3,0.3-1,0.3-1.9V81c0-1.5,0-2.4-0.1-2.8c-0.1-0.3-0.2-0.6-0.3-0.7c-0.1-0.1-0.3-0.2-0.6-0.2c-0.3,0-0.6,0.1-0.9,0.2
			l-0.2-0.5l3.8-1.6h0.6V78.2z"/>
		<path class="st1" d="M223.4,75.6v4.3H223c-0.3-1.4-0.8-2.3-1.3-2.8c-0.5-0.5-1.2-0.7-2.1-0.7c-0.6,0-1.2,0.2-1.6,0.5
			c-0.4,0.3-0.6,0.7-0.6,1.1c0,0.5,0.1,1,0.4,1.3c0.3,0.4,0.9,0.8,1.7,1.2l2,1c1.9,0.9,2.8,2.1,2.8,3.6c0,1.2-0.4,2.1-1.3,2.8
			c-0.9,0.7-1.8,1.1-2.9,1.1c-0.8,0-1.7-0.1-2.6-0.4c-0.3-0.1-0.6-0.1-0.7-0.1c-0.2,0-0.4,0.1-0.5,0.4h-0.5v-4.5h0.5
			c0.3,1.3,0.8,2.3,1.5,2.9c0.7,0.7,1.5,1,2.4,1c0.6,0,1.2-0.2,1.6-0.6c0.4-0.4,0.6-0.8,0.6-1.3c0-0.6-0.2-1.2-0.7-1.6
			c-0.4-0.4-1.3-1-2.7-1.6c-1.3-0.7-2.2-1.3-2.6-1.8c-0.4-0.5-0.6-1.2-0.6-2c0-1,0.4-1.9,1.1-2.6c0.7-0.7,1.6-1.1,2.8-1.1
			c0.5,0,1.1,0.1,1.8,0.3c0.5,0.1,0.8,0.2,0.9,0.2c0.1,0,0.3,0,0.3-0.1c0.1-0.1,0.2-0.2,0.3-0.4H223.4z"/>
		<path class="st1" d="M231.4,71.8v4.2h3v1h-3v8.2c0,0.8,0.1,1.4,0.4,1.7c0.2,0.3,0.5,0.4,0.9,0.4c0.3,0,0.6-0.1,0.9-0.3
			c0.3-0.2,0.5-0.5,0.7-0.8h0.5c-0.3,0.9-0.8,1.6-1.4,2c-0.6,0.5-1.2,0.7-1.8,0.7c-0.4,0-0.8-0.1-1.2-0.4c-0.4-0.2-0.7-0.6-0.9-1
			c-0.2-0.4-0.3-1.1-0.3-2v-8.5h-2v-0.5c0.5-0.2,1-0.5,1.6-1c0.5-0.5,1-1.1,1.4-1.7c0.2-0.3,0.5-1,0.9-1.9H231.4z"/>
		<path class="st1" d="M241.4,75.6v10.2c0,0.8,0.1,1.3,0.2,1.6c0.1,0.3,0.3,0.5,0.5,0.6c0.2,0.1,0.6,0.2,1.2,0.2v0.5h-6.1v-0.5
			c0.6,0,1-0.1,1.2-0.2c0.2-0.1,0.4-0.3,0.5-0.6c0.1-0.3,0.2-0.8,0.2-1.6v-4.9c0-1.4,0-2.3-0.1-2.7c-0.1-0.3-0.2-0.5-0.3-0.6
			c-0.1-0.1-0.3-0.2-0.6-0.2c-0.3,0-0.6,0.1-0.9,0.2l-0.2-0.5l3.8-1.6H241.4z M240.3,68.9c0.4,0,0.7,0.1,1,0.4
			c0.3,0.3,0.4,0.6,0.4,1c0,0.4-0.1,0.7-0.4,1c-0.3,0.3-0.6,0.4-1,0.4c-0.4,0-0.7-0.1-1-0.4c-0.3-0.3-0.4-0.6-0.4-1
			c0-0.4,0.1-0.7,0.4-1C239.5,69.1,239.9,68.9,240.3,68.9z"/>
		<path class="st1" d="M250,71.8v4.2h3v1h-3v8.2c0,0.8,0.1,1.4,0.4,1.7c0.2,0.3,0.5,0.4,0.9,0.4c0.3,0,0.6-0.1,0.9-0.3
			c0.3-0.2,0.5-0.5,0.7-0.8h0.5c-0.3,0.9-0.8,1.6-1.4,2c-0.6,0.5-1.2,0.7-1.8,0.7c-0.4,0-0.8-0.1-1.2-0.4c-0.4-0.2-0.7-0.6-0.9-1
			c-0.2-0.4-0.3-1.1-0.3-2v-8.5h-2v-0.5c0.5-0.2,1-0.5,1.6-1c0.5-0.5,1-1.1,1.4-1.7c0.2-0.3,0.5-1,0.9-1.9H250z"/>
		<path class="st1" d="M266.8,75.9v7.7c0,1.5,0,2.4,0.1,2.7c0.1,0.3,0.2,0.6,0.3,0.7c0.2,0.1,0.3,0.2,0.5,0.2c0.3,0,0.6-0.1,1-0.2
			l0.2,0.5l-3.8,1.6h-0.6v-2.7c-1.1,1.2-1.9,1.9-2.5,2.2c-0.6,0.3-1.2,0.5-1.8,0.5c-0.7,0-1.3-0.2-1.8-0.6c-0.5-0.4-0.9-0.9-1.1-1.6
			c-0.2-0.6-0.3-1.6-0.3-2.7v-5.7c0-0.6-0.1-1-0.2-1.2c-0.1-0.2-0.3-0.4-0.6-0.5c-0.3-0.1-0.7-0.2-1.4-0.2v-0.5h4.4v8.5
			c0,1.2,0.2,2,0.6,2.3c0.4,0.4,0.9,0.6,1.5,0.6c0.4,0,0.8-0.1,1.3-0.4c0.5-0.2,1.1-0.7,1.8-1.4v-7.2c0-0.7-0.1-1.2-0.4-1.5
			c-0.3-0.3-0.8-0.4-1.6-0.4v-0.5H266.8z"/>
		<path class="st1" d="M274.9,71.8v4.2h3v1h-3v8.2c0,0.8,0.1,1.4,0.4,1.7c0.2,0.3,0.5,0.4,0.9,0.4c0.3,0,0.6-0.1,0.9-0.3
			c0.3-0.2,0.5-0.5,0.7-0.8h0.5c-0.3,0.9-0.8,1.6-1.4,2c-0.6,0.5-1.2,0.7-1.8,0.7c-0.4,0-0.8-0.1-1.2-0.4c-0.4-0.2-0.7-0.6-0.9-1
			c-0.2-0.4-0.3-1.1-0.3-2v-8.5h-2v-0.5c0.5-0.2,1-0.5,1.6-1c0.5-0.5,1-1.1,1.4-1.7c0.2-0.3,0.5-1,0.9-1.9H274.9z"/>
		<path class="st1" d="M282.7,80.7c0,1.9,0.4,3.4,1.4,4.4c0.9,1.1,2,1.6,3.2,1.6c0.8,0,1.5-0.2,2.2-0.7c0.6-0.5,1.1-1.2,1.5-2.3
			l0.4,0.3c-0.2,1.3-0.8,2.4-1.7,3.5c-0.9,1-2.1,1.6-3.5,1.6c-1.5,0-2.8-0.6-3.9-1.8c-1.1-1.2-1.6-2.8-1.6-4.8
			c0-2.2,0.6-3.9,1.7-5.1c1.1-1.2,2.5-1.8,4.2-1.8c1.4,0,2.6,0.5,3.5,1.4c0.9,0.9,1.4,2.2,1.4,3.8H282.7z M282.7,79.9h5.8
			c0-0.8-0.1-1.4-0.3-1.7c-0.2-0.5-0.6-0.9-1-1.2c-0.5-0.3-0.9-0.4-1.4-0.4c-0.8,0-1.4,0.3-2,0.9C283.2,78,282.8,78.8,282.7,79.9z"
			/>
	</g>
	<rect x="-10" y="-6.2" class="st2" width="300.3" height="113.9"/>
</g>
</svg>
