<?xml version="1.0" encoding="UTF-8" standalone="no"?>
<!-- Generator: Adobe Illustrator 19.0.1, SVG Export Plug-In . SVG Version: 6.00 Build 0)  -->

<svg
   xmlns:dc="http://purl.org/dc/elements/1.1/"
   xmlns:cc="http://creativecommons.org/ns#"
   xmlns:rdf="http://www.w3.org/1999/02/22-rdf-syntax-ns#"
   xmlns:svg="http://www.w3.org/2000/svg"
   xmlns="http://www.w3.org/2000/svg"
   xmlns:sodipodi="http://sodipodi.sourceforge.net/DTD/sodipodi-0.dtd"
   xmlns:inkscape="http://www.inkscape.org/namespaces/inkscape"
   version="1.1"
   id="Layer_1"
   x="0px"
   y="0px"
   viewBox="0 0 292 90"
   xml:space="preserve"
   inkscape:version="0.91 r13725"
   sodipodi:docname="grattan-logo-right-aligned - Copy.svg"
   width="292"
   height="90"><metadata
     id="metadata47"><rdf:RDF><cc:Work
         rdf:about=""><dc:format>image/svg+xml</dc:format><dc:type
           rdf:resource="http://purl.org/dc/dcmitype/StillImage" /><dc:title></dc:title></cc:Work></rdf:RDF></metadata><defs
     id="defs45" /><sodipodi:namedview
     pagecolor="#ffffff"
     bordercolor="#666666"
     borderopacity="1"
     objecttolerance="10"
     gridtolerance="10"
     guidetolerance="10"
     inkscape:pageopacity="0"
     inkscape:pageshadow="2"
     inkscape:window-width="1680"
     inkscape:window-height="987"
     id="namedview43"
     showgrid="false"
     inkscape:zoom="2.9981327"
     inkscape:cx="237.07861"
     inkscape:cy="41.559548"
     inkscape:window-x="-8"
     inkscape:window-y="-8"
     inkscape:window-maximized="1"
     inkscape:current-layer="Layer_1" /><style
     type="text/css"
     id="style3">
	.st0{fill:#EA7200;}
	.st1{fill:#5C6670;}
	.st2{fill:none;}
</style><g
     id="g5"
     transform="translate(0,-10)"><g
       id="g7"><path
         class="st0"
         d="m 226.6,11.9 -0.3,0 -25.6,51.8 6.2,0 6.3,-13 26.1,0 c 0.9,1.9 5.6,11.8 6.2,13 l 6.2,0 -25.1,-51.8 z m -10.9,33.6 10.6,-21.9 10.4,21.9 -21,0 z"
         id="path9"
         inkscape:connector-curvature="0"
         style="fill:#ea7200" /><polygon
         class="st0"
         points="189.6,17.9 189.6,63.8 195.2,63.8 195.2,17.9 212.5,17.9 212.5,12.6 149.4,12.6 149.4,17.9 166.8,17.9 166.8,63.8 172.3,63.8 172.3,17.9 "
         id="polygon11"
         style="fill:#ea7200" /><path
         class="st0"
         d="m 136,11.9 -0.3,0 -25.6,51.8 6.2,0 6.3,-13 26.1,0 6.2,13 6.2,0 L 136,11.9 Z m -10.8,33.6 10.6,-21.9 10.4,21.9 -21,0 z"
         id="path13"
         inkscape:connector-curvature="0"
         style="fill:#ea7200" /><path
         class="st0"
         d="M 54.7,19.6 C 49.8,14.4 43.1,11.4 35.5,11.4 20.6,11.4 9.3,23.4 9.3,38.2 9.3,53 20.6,65 35.5,65 50.4,65 61.4,53 61.4,38.2 c 0,-1 0,-2 -0.1,-2.6 l -27.8,0 0,5.3 21.6,0 C 54.4,50.5 46.9,59.5 35.5,59.5 24,59.5 15.3,50 15.3,38.2 15.3,26.4 24,16.8 35.5,16.8 c 5.9,0 10.8,2.6 14.6,6.7 1.2,-1 3.7,-3.1 4.6,-3.9"
         id="path15"
         inkscape:connector-curvature="0"
         style="fill:#ea7200" /><polygon
         class="st0"
         points="286.1,50.4 251.8,11.9 251.8,63.8 257.2,63.8 257.2,26.1 291.5,64.7 291.5,12.6 286.1,12.6 "
         id="polygon17"
         style="fill:#ea7200" /><path
         class="st0"
         d="M 96.7,43 C 102.9,41.9 109,36.3 109,28.1 109,20.3 103.1,12.6 93.6,12.6 l -26.7,0 0,51.1 5.4,0 0,-20.2 18.3,0 c 1.2,1.8 11.9,18.6 12.9,20.3 l 6.8,0 C 110.1,63.8 97.7,44.2 96.7,43 Z m -24.5,-4.8 0,-20.3 20.8,0 c 6.2,0 10,5.1 10,10.2 0,5.4 -3.6,10 -9.9,10 l -20.9,0 z"
         id="path19"
         inkscape:connector-curvature="0"
         style="fill:#ea7200" /></g><g
       id="g21"><path
         class="st1"
         d="m 196.6,88.1 0,0.5 -8,0 0,-0.5 0.7,0 c 0.8,0 1.3,-0.2 1.7,-0.7 0.2,-0.3 0.3,-1 0.3,-2.1 l 0,-12.1 c 0,-1 -0.1,-1.6 -0.2,-1.9 -0.1,-0.2 -0.3,-0.4 -0.6,-0.6 -0.4,-0.2 -0.8,-0.3 -1.3,-0.3 l -0.7,0 0,-0.5 8,0 0,0.5 -0.5,0 c -0.8,0 -1.3,0.2 -1.7,0.7 -0.2,0.3 -0.3,1 -0.3,2.1 l 0,12.1 c 0,1 0.1,1.6 0.2,1.9 0.1,0.2 0.3,0.4 0.6,0.6 0.4,0.2 0.8,0.3 1.3,0.3 l 0.5,0 z"
         id="path23"
         inkscape:connector-curvature="0"
         style="fill:#5c6670" /><path
         class="st1"
         d="m 203.4,78.2 c 1.5,-1.8 2.9,-2.7 4.2,-2.7 0.7,0 1.3,0.2 1.8,0.5 0.5,0.3 0.9,0.9 1.2,1.7 0.2,0.6 0.3,1.4 0.3,2.5 l 0,5.4 c 0,0.8 0.1,1.3 0.2,1.6 0.1,0.2 0.3,0.4 0.5,0.5 0.2,0.1 0.6,0.2 1.2,0.2 l 0,0.5 -6.2,0 0,-0.5 0.3,0 c 0.6,0 1,-0.1 1.2,-0.3 0.2,-0.2 0.4,-0.4 0.5,-0.8 0,-0.1 0.1,-0.6 0.1,-1.3 l 0,-5.2 c 0,-1.2 -0.2,-2 -0.4,-2.5 -0.3,-0.5 -0.8,-0.8 -1.5,-0.8 -1.1,0 -2.2,0.6 -3.3,1.8 l 0,6.7 c 0,0.9 0.1,1.4 0.2,1.6 0.1,0.3 0.3,0.5 0.5,0.6 0.2,0.1 0.7,0.2 1.4,0.2 l 0,0.5 -6.2,0 0,-0.5 0.3,0 c 0.6,0 1.1,-0.2 1.3,-0.5 0.2,-0.3 0.3,-1 0.3,-1.9 l 0,-4.5 c 0,-1.5 0,-2.4 -0.1,-2.8 -0.1,-0.3 -0.2,-0.6 -0.3,-0.7 -0.1,-0.1 -0.3,-0.2 -0.6,-0.2 -0.3,0 -0.6,0.1 -0.9,0.2 l -0.2,-0.5 3.8,-1.6 0.6,0 0,2.8 z"
         id="path25"
         inkscape:connector-curvature="0"
         style="fill:#5c6670" /><path
         class="st1"
         d="m 223.4,75.6 0,4.3 -0.4,0 c -0.3,-1.4 -0.8,-2.3 -1.3,-2.8 -0.5,-0.5 -1.2,-0.7 -2.1,-0.7 -0.6,0 -1.2,0.2 -1.6,0.5 -0.4,0.3 -0.6,0.7 -0.6,1.1 0,0.5 0.1,1 0.4,1.3 0.3,0.4 0.9,0.8 1.7,1.2 l 2,1 c 1.9,0.9 2.8,2.1 2.8,3.6 0,1.2 -0.4,2.1 -1.3,2.8 -0.9,0.7 -1.8,1.1 -2.9,1.1 -0.8,0 -1.7,-0.1 -2.6,-0.4 -0.3,-0.1 -0.6,-0.1 -0.7,-0.1 -0.2,0 -0.4,0.1 -0.5,0.4 l -0.5,0 0,-4.5 0.5,0 c 0.3,1.3 0.8,2.3 1.5,2.9 0.7,0.7 1.5,1 2.4,1 0.6,0 1.2,-0.2 1.6,-0.6 0.4,-0.4 0.6,-0.8 0.6,-1.3 0,-0.6 -0.2,-1.2 -0.7,-1.6 -0.4,-0.4 -1.3,-1 -2.7,-1.6 -1.3,-0.7 -2.2,-1.3 -2.6,-1.8 -0.4,-0.5 -0.6,-1.2 -0.6,-2 0,-1 0.4,-1.9 1.1,-2.6 0.7,-0.7 1.6,-1.1 2.8,-1.1 0.5,0 1.1,0.1 1.8,0.3 0.5,0.1 0.8,0.2 0.9,0.2 0.1,0 0.3,0 0.3,-0.1 0.1,-0.1 0.2,-0.2 0.3,-0.4 l 0.4,0 z"
         id="path27"
         inkscape:connector-curvature="0"
         style="fill:#5c6670" /><path
         class="st1"
         d="m 231.4,71.8 0,4.2 3,0 0,1 -3,0 0,8.2 c 0,0.8 0.1,1.4 0.4,1.7 0.2,0.3 0.5,0.4 0.9,0.4 0.3,0 0.6,-0.1 0.9,-0.3 0.3,-0.2 0.5,-0.5 0.7,-0.8 l 0.5,0 c -0.3,0.9 -0.8,1.6 -1.4,2 -0.6,0.5 -1.2,0.7 -1.8,0.7 -0.4,0 -0.8,-0.1 -1.2,-0.4 -0.4,-0.2 -0.7,-0.6 -0.9,-1 -0.2,-0.4 -0.3,-1.1 -0.3,-2 l 0,-8.5 -2,0 0,-0.5 c 0.5,-0.2 1,-0.5 1.6,-1 0.5,-0.5 1,-1.1 1.4,-1.7 0.2,-0.3 0.5,-1 0.9,-1.9 l 0.3,0 z"
         id="path29"
         inkscape:connector-curvature="0"
         style="fill:#5c6670" /><path
         class="st1"
         d="m 241.4,75.6 0,10.2 c 0,0.8 0.1,1.3 0.2,1.6 0.1,0.3 0.3,0.5 0.5,0.6 0.2,0.1 0.6,0.2 1.2,0.2 l 0,0.5 -6.1,0 0,-0.5 c 0.6,0 1,-0.1 1.2,-0.2 0.2,-0.1 0.4,-0.3 0.5,-0.6 0.1,-0.3 0.2,-0.8 0.2,-1.6 l 0,-4.9 c 0,-1.4 0,-2.3 -0.1,-2.7 -0.1,-0.3 -0.2,-0.5 -0.3,-0.6 -0.1,-0.1 -0.3,-0.2 -0.6,-0.2 -0.3,0 -0.6,0.1 -0.9,0.2 l -0.2,-0.5 3.8,-1.6 0.6,0 z m -1.1,-6.7 c 0.4,0 0.7,0.1 1,0.4 0.3,0.3 0.4,0.6 0.4,1 0,0.4 -0.1,0.7 -0.4,1 -0.3,0.3 -0.6,0.4 -1,0.4 -0.4,0 -0.7,-0.1 -1,-0.4 -0.3,-0.3 -0.4,-0.6 -0.4,-1 0,-0.4 0.1,-0.7 0.4,-1 0.2,-0.2 0.6,-0.4 1,-0.4 z"
         id="path31"
         inkscape:connector-curvature="0"
         style="fill:#5c6670" /><path
         class="st1"
         d="m 250,71.8 0,4.2 3,0 0,1 -3,0 0,8.2 c 0,0.8 0.1,1.4 0.4,1.7 0.2,0.3 0.5,0.4 0.9,0.4 0.3,0 0.6,-0.1 0.9,-0.3 0.3,-0.2 0.5,-0.5 0.7,-0.8 l 0.5,0 c -0.3,0.9 -0.8,1.6 -1.4,2 -0.6,0.5 -1.2,0.7 -1.8,0.7 -0.4,0 -0.8,-0.1 -1.2,-0.4 -0.4,-0.2 -0.7,-0.6 -0.9,-1 -0.2,-0.4 -0.3,-1.1 -0.3,-2 l 0,-8.5 -2,0 0,-0.5 c 0.5,-0.2 1,-0.5 1.6,-1 0.5,-0.5 1,-1.1 1.4,-1.7 0.2,-0.3 0.5,-1 0.9,-1.9 l 0.3,0 z"
         id="path33"
         inkscape:connector-curvature="0"
         style="fill:#5c6670" /><path
         class="st1"
         d="m 266.8,75.9 0,7.7 c 0,1.5 0,2.4 0.1,2.7 0.1,0.3 0.2,0.6 0.3,0.7 0.2,0.1 0.3,0.2 0.5,0.2 0.3,0 0.6,-0.1 1,-0.2 l 0.2,0.5 -3.8,1.6 -0.6,0 0,-2.7 c -1.1,1.2 -1.9,1.9 -2.5,2.2 -0.6,0.3 -1.2,0.5 -1.8,0.5 -0.7,0 -1.3,-0.2 -1.8,-0.6 -0.5,-0.4 -0.9,-0.9 -1.1,-1.6 -0.2,-0.6 -0.3,-1.6 -0.3,-2.7 l 0,-5.7 c 0,-0.6 -0.1,-1 -0.2,-1.2 -0.1,-0.2 -0.3,-0.4 -0.6,-0.5 -0.3,-0.1 -0.7,-0.2 -1.4,-0.2 l 0,-0.5 4.4,0 0,8.5 c 0,1.2 0.2,2 0.6,2.3 0.4,0.4 0.9,0.6 1.5,0.6 0.4,0 0.8,-0.1 1.3,-0.4 0.5,-0.2 1.1,-0.7 1.8,-1.4 l 0,-7.2 c 0,-0.7 -0.1,-1.2 -0.4,-1.5 -0.3,-0.3 -0.8,-0.4 -1.6,-0.4 l 0,-0.5 4.4,0 z"
         id="path35"
         inkscape:connector-curvature="0"
         style="fill:#5c6670" /><path
         class="st1"
         d="m 274.9,71.8 0,4.2 3,0 0,1 -3,0 0,8.2 c 0,0.8 0.1,1.4 0.4,1.7 0.2,0.3 0.5,0.4 0.9,0.4 0.3,0 0.6,-0.1 0.9,-0.3 0.3,-0.2 0.5,-0.5 0.7,-0.8 l 0.5,0 c -0.3,0.9 -0.8,1.6 -1.4,2 -0.6,0.5 -1.2,0.7 -1.8,0.7 -0.4,0 -0.8,-0.1 -1.2,-0.4 -0.4,-0.2 -0.7,-0.6 -0.9,-1 -0.2,-0.4 -0.3,-1.1 -0.3,-2 l 0,-8.5 -2,0 0,-0.5 c 0.5,-0.2 1,-0.5 1.6,-1 0.5,-0.5 1,-1.1 1.4,-1.7 0.2,-0.3 0.5,-1 0.9,-1.9 l 0.3,0 z"
         id="path37"
         inkscape:connector-curvature="0"
         style="fill:#5c6670" /><path
         class="st1"
         d="m 282.7,80.7 c 0,1.9 0.4,3.4 1.4,4.4 0.9,1.1 2,1.6 3.2,1.6 0.8,0 1.5,-0.2 2.2,-0.7 0.6,-0.5 1.1,-1.2 1.5,-2.3 l 0.4,0.3 c -0.2,1.3 -0.8,2.4 -1.7,3.5 -0.9,1 -2.1,1.6 -3.5,1.6 -1.5,0 -2.8,-0.6 -3.9,-1.8 -1.1,-1.2 -1.6,-2.8 -1.6,-4.8 0,-2.2 0.6,-3.9 1.7,-5.1 1.1,-1.2 2.5,-1.8 4.2,-1.8 1.4,0 2.6,0.5 3.5,1.4 0.9,0.9 1.4,2.2 1.4,3.8 l -8.8,0 z m 0,-0.8 5.8,0 c 0,-0.8 -0.1,-1.4 -0.3,-1.7 -0.2,-0.5 -0.6,-0.9 -1,-1.2 -0.5,-0.3 -0.9,-0.4 -1.4,-0.4 -0.8,0 -1.4,0.3 -2,0.9 -0.6,0.5 -1,1.3 -1.1,2.4 z"
         id="path39"
         inkscape:connector-curvature="0"
         style="fill:#5c6670" /></g><rect
       x="-10"
       y="-6.1999998"
       class="st2"
       width="320.29999"
       height="113.9"
       id="rect41"
       style="fill:none" /></g></svg>